<?xml version="1.0" encoding="UTF-8"?><svg id="Layer_1" xmlns="http://www.w3.org/2000/svg" width="500" height="500" xmlns:xlink="http://www.w3.org/1999/xlink" viewBox="0 0 500 500"><defs><style>.cls-1{fill:url(#linear-gradient-8);}.cls-2{fill:url(#linear-gradient-7);}.cls-3{fill:url(#linear-gradient-5);}.cls-4{fill:url(#linear-gradient-6);}.cls-5{fill:url(#linear-gradient-9);}.cls-6{fill:url(#linear-gradient-4);}.cls-7{fill:url(#linear-gradient-3);}.cls-8{fill:url(#linear-gradient-2);}.cls-9{fill:url(#linear-gradient);}</style><linearGradient id="linear-gradient" x1="328.95" y1="110.62" x2="144.65" y2="303.64" gradientUnits="userSpaceOnUse"><stop offset="0" stop-color="#6d26fd"/><stop offset=".86" stop-color="#da006f"/></linearGradient><linearGradient id="linear-gradient-2" x1="417.14" y1="194.82" x2="232.83" y2="387.84" gradientUnits="userSpaceOnUse"><stop offset="0" stop-color="#6d26fd"/><stop offset="1" stop-color="#da006f"/></linearGradient><linearGradient id="linear-gradient-3" x1="276.11" y1="60.16" x2="91.81" y2="253.18" xlink:href="#linear-gradient-2"/><linearGradient id="linear-gradient-4" x1="273.65" y1="57.81" x2="89.34" y2="250.83" xlink:href="#linear-gradient-2"/><linearGradient id="linear-gradient-5" x1="294.21" y1="77.44" x2="109.91" y2="270.47" xlink:href="#linear-gradient-2"/><linearGradient id="linear-gradient-6" x1="323.14" y1="105.06" x2="138.83" y2="298.08" xlink:href="#linear-gradient-2"/><linearGradient id="linear-gradient-7" x1="355.43" y1="135.89" x2="171.12" y2="328.92" gradientUnits="userSpaceOnUse"><stop offset="0" stop-color="#6d26fd"/><stop offset=".78" stop-color="#da006f"/></linearGradient><linearGradient id="linear-gradient-8" x1="379.38" y1="158.77" x2="195.07" y2="351.79" xlink:href="#linear-gradient-2"/><linearGradient id="linear-gradient-9" x1="403.64" y1="181.93" x2="219.34" y2="374.95" xlink:href="#linear-gradient-2"/></defs><path class="cls-9" d="M339.81,97.53c-75.31,64.29-122.71,133.06-122.71,133.06,0,0-45.03-33.98-90.9-55.22-45.88-21.24-101.1-32.28-101.1-32.28,0,0,69.66,33.13,140.17,125.73,73.5,96.52,88.35,206.44,88.35,206.44,0,0-8.17-72.04,18.17-164.84-.01.03-.02.07-.03.1-11.3-3.55-22.6-7.09-33.9-10.64-4.83-1.72-9.34-4.33-11.32-9.24-2.34-5.82-.68-12.42,1.2-18.21,3-8.55,6.15-17.05,9.44-25.5,3.18,1.25,6.37,2.49,9.55,3.74-3.27,8.4-6.4,16.85-9.38,25.36-.88,2.88-1.71,5.89-.87,8.83.68,2.39,2.85,4.01,5.2,4.73,11.01,3.64,22.02,7.29,33.03,10.93,4.36-14.25,9.54-28.93,15.7-43.87-10.42-4.26-20.83-8.53-31.25-12.79,1.37-3.33,2.76-6.64,4.16-9.95,10.37,4.43,20.73,8.86,31.1,13.28,3.63-8.3,7.56-16.66,11.82-25.06-2.51,4.28-5.65,8.36-10.02,10.49-5.11,2.48-11.01,1-16.06-1.04-8.2-3.62-16.39-7.25-24.59-10.87,1.54-3.48,3.11-6.94,4.7-10.4,2.22,1.02,4.43,2.05,6.65,3.07,2.01-4.33,4.05-8.65,6.13-12.95,3.08,1.49,6.15,2.99,9.23,4.48-2.05,4.24-4.06,8.49-6.04,12.76,2.88,1.33,5.77,2.66,8.65,3.99,2.56,1.15,5.74,1.29,8.12-.31,2.79-1.87,4.95-5.08,6.41-8.12.9-1.85,1.81-3.7,2.73-5.55,3.06,1.52,6.12,3.04,9.18,4.56-.36.72-.75,1.42-1.06,2.16,7.84-18.49,24.53-48.31,57.03-89.39,53.94-68.19,108.37-100.3,108.37-100.3,0,0-73.94,19.98-135.85,72.83ZM267,258.59c-3.91,10.04-7.6,20.16-11.08,30.36-3.24-1.1-6.48-2.19-9.71-3.29,3.53-10.35,7.28-20.62,11.24-30.81,3.18,1.25,6.37,2.49,9.55,3.74ZM255.69,231.1c.84.9,1.23,1.98,1.17,3.24,0,.76-.19,1.58-.56,2.46-.01.03-.02.04-.03.07-.4.84-.76,1.45-1.08,1.82-.84,1-1.88,1.53-3.12,1.62-.87.06-1.75-.08-2.63-.44-.95-.39-1.86-1.01-2.71-1.88-.8-.81-1.1-1.8-.93-2.94.16-1.06.34-1.88.57-2.41.01-.03.02-.04.03-.07.4-.83.75-1.42,1.06-1.78.74-.88,1.65-1.41,2.7-1.59,1.06-.18,2.18,0,3.37.5.05.02.1.04.17.07.84.39,1.51.83,1.99,1.32Z"/><path class="cls-8" d="M354.9,172.1c-4.05,5.69-7.96,11.47-11.72,17.33-4.55,7.09-8.9,14.31-13.07,21.67,23.79,50.03,6.94,111.07-41.08,141.36-4.13,2.6-8.36,4.9-12.68,6.9-1.55,8.27-2.9,16.59-4.04,24.94-1,7.38-1.79,14.42-2.4,21.05,14.16-3.87,27.99-9.87,41.05-18.11,71.04-44.8,92.31-138.71,47.51-209.74-1.16-1.83-2.35-3.63-3.57-5.4Z"/><path class="cls-7" d="M132.95,162.56c7.75,3.59,15.83,7.68,24.18,12.25,4.19-3.63,8.71-6.99,13.54-10.03,26.59-16.77,57.57-20.85,85.86-13.85,5.81-6.7,11.82-13.27,17.98-19.67,4.34-4.5,8.76-8.92,13.25-13.26-43.98-18.07-95.74-15.3-139.02,11.99-11.75,7.41-22.14,16.17-31.1,25.94,5.36,2.17,10.47,4.38,15.32,6.62Z"/><path class="cls-6" d="M97.16,233.94c.95-4.58,2.68-7.78,5.2-9.61,2.52-1.83,5.87-2.31,10.05-1.45,3.95.82,6.79,2.51,8.49,5.1,1.71,2.58,2.06,6.28,1.07,11.08l-4.18,20.27-7.95-1.64,4.18-20.27c.4-1.93.35-3.45-.15-4.56-.5-1.11-1.54-1.83-3.11-2.15-1.57-.32-2.81-.08-3.71.74-.9.82-1.55,2.2-1.95,4.13l-1.96,9.48c-.95,4.58-2.69,7.78-5.22,9.61-2.54,1.83-5.92,2.3-10.16,1.43-3.92-.81-6.72-2.5-8.4-5.08-1.68-2.58-2.02-6.27-1.03-11.07l4.18-20.27,7.95,1.64-4.18,20.27c-.38,1.86-.33,3.32.16,4.38.49,1.07,1.52,1.77,3.09,2.09h.06c1.49.32,2.7.12,3.62-.6.92-.72,1.58-2.06,1.99-4.03l1.96-9.48Z"/><path class="cls-3" d="M115.23,276.72l-5.65,1.29,2.39,10.43-7.91,1.81-2.39-10.43-7.35,1.68c-2.54.58-4.19,1.94-4.94,4.06-.75,2.12-.76,4.81-.02,8.05l1.07,4.69-7.91,1.81-1.07-4.69c-1.48-6.44-1.32-11.53.48-15.28,1.88-3.4,5.43-5.71,10.67-6.91l20.74-4.75,1.88,8.22Z"/><path class="cls-4" d="M104.4,318.73c-3.09,1.59-3.32,4.95-.69,10.07,2.67,5.19,5.55,6.99,8.65,5.4l15.98-8.22,3.71,7.22-16.34,8.41c-7.66,3.94-14.07.92-19.21-9.08-5.11-9.93-3.84-16.86,3.8-20.8l16.37-8.42,3.71,7.22-15.98,8.22Z"/><path class="cls-2" d="M161.35,344.56l7.05,4.99-24.56,34.75-15.48-10.94c-4.74-3.35-7.34-6.74-7.82-10.18-.48-3.44.83-7.35,3.93-11.74,3.1-4.39,6.35-6.93,9.75-7.62,3.4-.69,7.47.63,12.2,3.98l4.12,2.91-4.73,6.59-4.07-2.88c-1.89-1.34-3.7-1.9-5.41-1.69s-3.35,1.42-4.91,3.63c-1.56,2.21-2.16,4.16-1.78,5.84.37,1.68,1.52,3.2,3.45,4.57l8.38,5.92,19.88-28.12Z"/><path class="cls-1" d="M179.37,358.67l.05.03c.59.33,1.01.62,1.25.87.61.6.95,1.31,1.02,2.14.07.83-.12,1.7-.57,2.63l-.06.13c-.34.65-.71,1.16-1.1,1.53-.72.64-1.56.92-2.51.84-.57-.02-1.18-.19-1.82-.5l-.05-.03c-.61-.34-1.04-.64-1.3-.89-.7-.68-1.04-1.51-1.01-2.49.01-.68.18-1.36.51-2.04.36-.73.88-1.42,1.59-2.06.66-.6,1.41-.82,2.25-.64.79.15,1.37.31,1.75.5ZM165.45,396.46l-7.29-3.56,11.97-24.54,7.29,3.56-11.97,24.54Z"/><path class="cls-5" d="M185.05,389.85c1.38-10.34,8-14.72,19.88-13.14,11.88,1.58,17.12,7.54,15.75,17.89-1.37,10.31-8,14.69-19.88,13.14l-.12-.02c-11.8-1.57-17.01-7.53-15.63-17.87ZM201.87,399.69c6.32.82,9.81-1.23,10.47-6.15v-.09s.02-.06.02-.06c.65-4.9-2.18-7.79-8.5-8.65-6.32-.84-9.81,1.2-10.47,6.12v.09c-.64,4.99,2.14,7.89,8.33,8.72l.14.02Z"/></svg>